# Blender v2.74 (sub 0) OBJ File: ''
# www.blender.org
mtllib ao test.mtl
o Cube.004_Cube.005
v 2.608984 2.124567 -1.000000
v 2.608984 2.124567 1.000000
v 0.608984 2.124567 1.000000
v 0.608984 2.124567 -1.000000
v 2.608984 4.124567 -0.999999
v 2.608983 4.124567 1.000001
v 0.608984 4.124567 1.000000
v 0.608984 4.124567 -1.000000
v -2.000000 0.000000 -1.000000
v -2.000000 0.000000 1.000000
v -4.000000 0.000000 1.000000
v -4.000000 0.000000 -1.000000
v -2.000000 1.000000 -0.999999
v -2.000001 1.000000 1.000001
v -4.000000 1.000000 1.000000
v -4.000000 1.000000 -1.000000
v -1.000000 0.000000 -2.000000
v -1.000000 0.000000 0.000000
v -3.000000 0.000000 -0.000000
v -3.000000 0.000000 -2.000000
v -1.000000 2.000000 -2.000000
v -1.000001 2.000000 0.000001
v -3.000000 2.000000 -0.000000
v -3.000000 2.000000 -2.000000
v 0.000000 2.000000 -2.000000
v 0.000000 2.000000 0.000000
v -2.000000 2.000000 -0.000000
v -2.000000 2.000000 -2.000000
v 0.000000 4.000000 -2.000000
v -0.000001 4.000000 0.000001
v -2.000000 4.000000 -0.000000
v -2.000000 4.000000 -2.000000
v 1.000000 0.000000 -1.000000
v 1.000000 0.000000 1.000000
v -1.000000 0.000000 1.000000
v -1.000000 0.000000 -1.000000
v 1.000000 2.000000 -0.999999
v 0.999999 2.000000 1.000001
v -1.000000 2.000000 1.000000
v -1.000000 2.000000 -1.000000
vn 0.000000 -1.000000 -0.000000
vn 0.000000 1.000000 0.000000
vn 1.000000 0.000000 0.000000
vn -0.000000 -0.000000 1.000000
vn -1.000000 -0.000000 -0.000000
vn 0.000000 0.000000 -1.000000
usemtl Material
s off
f 1//1 2//1 3//1 4//1
f 5//2 8//2 7//2 6//2
f 1//3 5//3 6//3 2//3
f 2//4 6//4 7//4 3//4
f 3//5 7//5 8//5 4//5
f 5//6 1//6 4//6 8//6
f 9//1 10//1 11//1 12//1
f 13//2 16//2 15//2 14//2
f 9//3 13//3 14//3 10//3
f 10//4 14//4 15//4 11//4
f 11//5 15//5 16//5 12//5
f 13//6 9//6 12//6 16//6
f 17//1 18//1 19//1 20//1
f 21//2 24//2 23//2 22//2
f 17//3 21//3 22//3 18//3
f 18//4 22//4 23//4 19//4
f 19//5 23//5 24//5 20//5
f 21//6 17//6 20//6 24//6
f 25//1 26//1 27//1 28//1
f 29//2 32//2 31//2 30//2
f 25//3 29//3 30//3 26//3
f 26//4 30//4 31//4 27//4
f 27//5 31//5 32//5 28//5
f 29//6 25//6 28//6 32//6
f 33//1 34//1 35//1 36//1
f 37//2 40//2 39//2 38//2
f 33//3 37//3 38//3 34//3
f 34//4 38//4 39//4 35//4
f 35//5 39//5 40//5 36//5
f 37//6 33//6 36//6 40//6
